<svg width="228" height="67" viewBox="0 0 228 67" fill="none" xmlns="http://www.w3.org/2000/svg">
<path d="M23.9762 51.9298L15.4814 24.2818L32.471 24.2818L23.9762 51.9298Z" fill="black"/>
<path d="M25.6637 49.8309L34.0539 24.5952L47.7596 24.5953L25.6637 49.8309Z" fill="#747474"/>
<path d="M22.0445 49.9599L14.0797 24.6045L0.375689 24.4039L22.0445 49.9599Z" fill="#747474"/>
<path d="M23.9762 14.815L32.471 23.2787H15.4814L23.9762 14.815Z" fill="black"/>
<path d="M33.5164 22.0875L25.138 14H36.7413L33.5164 22.0875Z" fill="#747474"/>
<path d="M14.436 22.1502L22.8144 14.0627H11.2111L14.436 22.1502Z" fill="#747474"/>
<path d="M10.1362 14.1881L13.361 23.5295H0L4.73216 18.9842L10.1362 14.1881Z" fill="black"/>
<path d="M37.8162 14.0627L34.5913 23.4041H47.9524L43.2202 18.8588L37.8162 14.0627Z" fill="black"/>
<path d="M84.8594 43.25C84.8594 43.4219 84.8203 43.5859 84.7422 43.7422C84.4297 43.9141 84.1016 44.0312 83.7578 44.0938C83.4297 44.1719 83.1016 44.2109 82.7734 44.2109C82.6172 44.2109 82.4453 44.2031 82.2578 44.1875C82.0859 44.1875 81.9297 44.1719 81.7891 44.1406C81.7422 44.125 81.6875 44.0938 81.625 44.0469C81.5625 44 81.5 43.9766 81.4375 43.9766C81.2812 43.9766 81.1328 44 80.9922 44.0469C80.8516 44.1094 80.7031 44.1406 80.5469 44.1406C80.4688 44.1406 80.3906 44.1172 80.3125 44.0703C80.25 44.0234 80.1797 43.9922 80.1016 43.9766C79.9922 43.9453 79.8828 43.9375 79.7734 43.9531C79.6641 43.9688 79.5469 43.9766 79.4219 43.9766C79.25 43.9766 79.0938 43.9531 78.9531 43.9062C78.8281 43.8594 78.7109 43.7734 78.6016 43.6484C78.2109 43.6016 77.8281 43.5234 77.4531 43.4141C77.0781 43.3203 76.7031 43.2109 76.3281 43.0859C75.9531 42.9766 75.5781 42.8672 75.2031 42.7578C74.8281 42.6641 74.4453 42.6016 74.0547 42.5703C73.9609 42.4609 73.8516 42.375 73.7266 42.3125C73.6016 42.2656 73.5078 42.1797 73.4453 42.0547C73.3672 42.0547 73.3125 42.0625 73.2812 42.0781C73.25 42.1094 73.1953 42.125 73.1172 42.125C72.8516 41.9062 72.5625 41.7188 72.25 41.5625C71.9531 41.4062 71.6406 41.2578 71.3125 41.1172C71 40.9766 70.6875 40.8281 70.375 40.6719C70.0781 40.5312 69.7969 40.3438 69.5312 40.1094H69.4141C69.2891 40.125 69.1797 40.0938 69.0859 40.0156C69.0078 39.9531 68.9062 39.9219 68.7812 39.9219C68.7031 39.9219 68.6406 39.9297 68.5938 39.9453C68.5469 39.8203 68.4766 39.7188 68.3828 39.6406C68.2891 39.5625 68.1875 39.4844 68.0781 39.4062C67.9844 39.3438 67.8906 39.2734 67.7969 39.1953C67.7031 39.1328 67.6328 39.0469 67.5859 38.9375C67.1953 38.7969 66.8125 38.625 66.4375 38.4219C66.0781 38.2344 65.7578 37.9844 65.4766 37.6719C65.1641 37.6406 64.9062 37.5469 64.7031 37.3906C64.5 37.2188 64.3125 37.0078 64.1406 36.7578C63.7656 36.6328 63.4219 36.4688 63.1094 36.2656C62.7969 36.0625 62.4844 35.8516 62.1719 35.6328C61.875 35.4141 61.5547 35.2188 61.2109 35.0469C60.8828 34.8594 60.5078 34.7266 60.0859 34.6484C60.0703 34.5391 60.0234 34.4609 59.9453 34.4141C59.8672 34.3516 59.7734 34.3047 59.6641 34.2734C59.5703 34.2266 59.4766 34.1875 59.3828 34.1562C59.2891 34.125 59.2188 34.0625 59.1719 33.9688C59.125 33.9688 59.0781 33.9688 59.0312 33.9688C58.9844 33.9531 58.9375 33.9453 58.8906 33.9453C58.8438 33.9453 58.7891 33.9531 58.7266 33.9688C58.6797 33.9688 58.6328 33.9688 58.5859 33.9688L58.6094 33.8984C58.6094 33.8359 58.5859 33.7969 58.5391 33.7812C58.5078 33.7656 58.4609 33.75 58.3984 33.7344C58.3359 33.7188 58.2812 33.6953 58.2344 33.6641C58.1875 33.6328 58.1641 33.5625 58.1641 33.4531H58.0938C57.9219 33.4531 57.7656 33.4219 57.625 33.3594C57.4844 33.2969 57.3281 33.25 57.1562 33.2188C57.125 33.3906 57.1094 33.5547 57.1094 33.7109V34.1328C57.1094 34.8359 57.1875 35.5781 57.3438 36.3594C57.5 37.125 57.7422 37.8125 58.0703 38.4219C58.3984 38.5469 58.6797 38.7109 58.9141 38.9141C59.1484 39.1172 59.375 39.3516 59.5938 39.6172C59.6094 40.0391 59.4531 40.3906 59.125 40.6719C58.8125 40.9688 58.4453 41.1172 58.0234 41.1172C57.7891 41.1172 57.5703 41.0547 57.3672 40.9297C57.1797 40.8203 57.0234 40.6562 56.8984 40.4375C56.8047 40.4375 56.7188 40.4531 56.6406 40.4844C56.5625 40.5312 56.4688 40.5547 56.3594 40.5547C56.3125 40.5547 56.2656 40.5469 56.2188 40.5312C56.0625 40.2656 55.9062 40.0312 55.75 39.8281C55.6094 39.625 55.5156 39.3516 55.4688 39.0078C55.2969 38.9297 55.1875 38.7891 55.1406 38.5859C55.1094 38.3828 55.0234 38.2188 54.8828 38.0938C54.8203 37.3906 54.7344 36.6875 54.625 35.9844C54.5312 35.2812 54.4844 34.5781 54.4844 33.875C54.4844 33.7188 54.4922 33.5625 54.5078 33.4062C54.5234 33.2344 54.5391 33.0625 54.5547 32.8906C54.5234 32.8125 54.4766 32.7422 54.4141 32.6797C54.3672 32.6016 54.3281 32.5234 54.2969 32.4453C53.9844 32.5234 53.6562 32.6016 53.3125 32.6797C52.9844 32.7422 52.6484 32.7734 52.3047 32.7734C52.0859 32.7734 51.8203 32.7422 51.5078 32.6797C51.1953 32.6016 50.9531 32.5 50.7812 32.375C50.6562 32.2969 50.5703 32.1562 50.5234 31.9531C50.4609 31.7344 50.4297 31.5469 50.4297 31.3906C50.4297 31.125 50.4766 30.8594 50.5703 30.5938C50.6641 30.3125 50.7891 30.0703 50.9453 29.8672C51.7109 29.5547 52.4219 29.1719 53.0781 28.7188C53.75 28.2656 54.4062 27.7734 55.0469 27.2422C55.0625 27.0859 55.0859 26.9297 55.1172 26.7734C55.1641 26.6172 55.1875 26.4531 55.1875 26.2812C55.1875 26.0938 55.1406 25.9141 55.0469 25.7422C55.1406 25.6484 55.1875 25.5312 55.1875 25.3906C55.1875 25.2344 55.2266 25.0938 55.3047 24.9688V24.8281C55.3047 24.7656 55.2969 24.7031 55.2812 24.6406C55.2812 24.5781 55.2578 24.5156 55.2109 24.4531C55.3203 23.8438 55.4062 23.2422 55.4688 22.6484C55.5312 22.0391 55.5625 21.4141 55.5625 20.7734C55.5625 20.7266 55.5859 20.6016 55.6328 20.3984C55.6953 20.1797 55.7344 20.0312 55.75 19.9531C55.8125 19.5938 55.8516 19.2422 55.8672 18.8984C55.8984 18.5391 55.9375 18.1797 55.9844 17.8203C56 17.6953 56.0312 17.5312 56.0781 17.3281C56.125 17.125 56.1484 16.9844 56.1484 16.9062C56.1484 16.7969 56.125 16.7266 56.0781 16.6953C56.0469 16.6484 56.0156 16.5781 55.9844 16.4844C56.0781 16.125 56.125 15.7656 56.125 15.4062C56.1406 15.0312 56.1719 14.6641 56.2188 14.3047C56.4844 14.1953 56.6953 14.0859 56.8516 13.9766C57.0078 13.8672 57.2344 13.8125 57.5312 13.8125H57.5781C57.6094 14 57.6797 14.1797 57.7891 14.3516C57.8984 14.5078 58.0078 14.6719 58.1172 14.8438C58.2422 15 58.3516 15.1562 58.4453 15.3125C58.5391 15.4531 58.5859 15.5938 58.5859 15.7344C58.5859 16 58.5625 16.2891 58.5156 16.6016C58.4688 16.9141 58.4297 17.2031 58.3984 17.4688C58.3203 18.1719 58.25 18.8672 58.1875 19.5547C58.125 20.2266 58.0312 20.9141 57.9062 21.6172C57.9531 21.8359 57.9766 22.0391 57.9766 22.2266C57.9766 22.5078 57.9531 22.7891 57.9062 23.0703C57.8594 23.3516 57.8359 23.6406 57.8359 23.9375C57.8359 24.0781 57.8438 24.2266 57.8594 24.3828C57.8906 24.5391 57.9375 24.6797 58 24.8047C58.5312 24.6641 59.0078 24.375 59.4297 23.9375C59.4922 23.875 59.5547 23.7969 59.6172 23.7031C59.6953 23.5938 59.7734 23.5078 59.8516 23.4453C60.0078 23.3203 60.1719 23.2109 60.3438 23.1172C60.5312 23.0078 60.7109 22.8984 60.8828 22.7891C61.2891 22.5234 61.6797 22.25 62.0547 21.9688C62.4453 21.6719 62.8359 21.3828 63.2266 21.1016C64.3828 20.2578 65.5 19.3828 66.5781 18.4766C67.6719 17.5547 68.7344 16.5859 69.7656 15.5703C69.8125 15.3047 69.9062 15.0938 70.0469 14.9375C70.1875 14.7812 70.3125 14.5938 70.4219 14.375C70.7188 14.2656 70.9766 14.1016 71.1953 13.8828C71.2891 13.9141 71.3828 13.9375 71.4766 13.9531C71.5859 13.9531 71.6875 13.9531 71.7812 13.9531C71.8906 13.9531 71.9922 13.9609 72.0859 13.9766C72.1953 13.9766 72.2891 14 72.3672 14.0469C72.3828 14.2812 72.4062 14.4922 72.4375 14.6797C72.4688 14.8672 72.5625 15.0469 72.7188 15.2188C72.7188 15.25 72.7188 15.2812 72.7188 15.3125C72.7344 15.3438 72.7422 15.375 72.7422 15.4062C72.7422 15.5781 72.6953 15.7188 72.6016 15.8281C72.5078 15.9375 72.4531 16.0703 72.4375 16.2266L71.2188 17.4453C70.8125 17.8516 70.4375 18.2891 70.0938 18.7578C69.9688 18.7734 69.8594 18.8125 69.7656 18.875C69.6719 18.9375 69.5781 19.0078 69.4844 19.0859C69.4062 19.1484 69.3203 19.2109 69.2266 19.2734C69.1328 19.3359 69.0312 19.3828 68.9219 19.4141C68.6406 19.7891 68.3203 20.1328 67.9609 20.4453C67.6016 20.7422 67.2344 21.0312 66.8594 21.3125C66.4844 21.5938 66.1094 21.8828 65.7344 22.1797C65.375 22.4609 65.0391 22.7734 64.7266 23.1172C64.3984 23.2734 64.0781 23.4609 63.7656 23.6797C63.4688 23.8828 63.2266 24.1406 63.0391 24.4531H62.9219C62.8438 24.4531 62.7812 24.4766 62.7344 24.5234C62.6875 24.5547 62.625 24.5703 62.5469 24.5703C61.7031 25.3047 60.8281 26 59.9219 26.6562C59.0156 27.2969 58.1484 28 57.3203 28.7656V29.3516C57.5859 29.5078 57.875 29.6562 58.1875 29.7969C58.5 29.9219 58.8047 30.0625 59.1016 30.2188C59.4141 30.375 59.7031 30.5469 59.9688 30.7344C60.25 30.9062 60.4922 31.1172 60.6953 31.3672C60.7266 31.3516 60.7656 31.3438 60.8125 31.3438C60.9531 31.3438 61.0625 31.3906 61.1406 31.4844C61.2188 31.5625 61.3516 31.5859 61.5391 31.5547C61.6016 31.8047 61.7422 31.9844 61.9609 32.0938C62.1797 32.2031 62.3984 32.2969 62.6172 32.375C62.8047 32.5625 62.9766 32.7422 63.1328 32.9141C63.2891 33.0703 63.5156 33.1719 63.8125 33.2188C63.8438 33.2812 63.8672 33.3516 63.8828 33.4297C63.8984 33.5078 63.9297 33.5781 63.9766 33.6406C64.2734 33.7344 64.5547 33.8672 64.8203 34.0391C65.1016 34.2109 65.375 34.3906 65.6406 34.5781C65.9062 34.75 66.1719 34.9219 66.4375 35.0938C66.7188 35.25 67.0156 35.375 67.3281 35.4688C67.375 35.625 67.4609 35.7344 67.5859 35.7969C67.7266 35.8594 67.8359 35.9531 67.9141 36.0781H68.3359C68.3828 36.1562 68.4453 36.2344 68.5234 36.3125C68.6016 36.375 68.6562 36.4688 68.6875 36.5938C68.8125 36.625 68.9531 36.6719 69.1094 36.7344C69.2656 36.7812 69.4062 36.8438 69.5312 36.9219C69.5781 36.9688 69.6094 37.0234 69.625 37.0859C69.6562 37.1484 69.7031 37.2031 69.7656 37.25C69.8594 37.3281 70 37.3906 70.1875 37.4375C70.3906 37.4688 70.5625 37.5234 70.7031 37.6016C70.9844 37.7578 71.2578 37.9297 71.5234 38.1172C71.7891 38.3203 72.0703 38.5078 72.3672 38.6797L73.2812 39.1719C73.4375 39.25 73.5781 39.3359 73.7031 39.4297C73.8438 39.5234 73.9844 39.6094 74.125 39.6875C74.4062 39.8125 74.7031 39.8906 75.0156 39.9219C75.3438 39.9688 75.6406 40.0547 75.9062 40.1797C75.9844 40.2266 76.0391 40.2812 76.0703 40.3438C76.1016 40.4219 76.1562 40.4844 76.2344 40.5312C76.3594 40.6094 76.5547 40.6641 76.8203 40.6953C77.0859 40.7266 77.3047 40.7812 77.4766 40.8594C77.6953 40.9531 77.9062 41.0391 78.1094 41.1172C78.3281 41.2109 78.5469 41.3203 78.7656 41.4453C79.2344 41.4766 79.6953 41.5312 80.1484 41.6094C80.6172 41.6875 81.0781 41.7656 81.5312 41.8438C81.9844 41.9219 82.4375 41.9922 82.8906 42.0547C83.3594 42.1172 83.8281 42.1406 84.2969 42.125C84.2969 42.1562 84.3125 42.1719 84.3438 42.1719C84.3906 42.1875 84.4297 42.1953 84.4609 42.1953C84.5703 42.3672 84.6641 42.5391 84.7422 42.7109C84.8203 42.8828 84.8594 43.0625 84.8594 43.25ZM88.0703 36.2891C88.0234 36.5078 87.9219 36.6875 87.7656 36.8281C87.625 36.9531 87.4531 37.0547 87.25 37.1328C87.0469 37.2109 86.8359 37.2656 86.6172 37.2969C86.4141 37.3125 86.2266 37.3203 86.0547 37.3203C85.9766 37.3203 85.8984 37.3203 85.8203 37.3203C85.7578 37.3047 85.6875 37.2969 85.6094 37.2969C85.5312 37.2969 85.4922 37.3359 85.4922 37.4141C85.4922 37.4922 85.4531 37.5469 85.375 37.5781C85.2969 37.5469 85.2188 37.5234 85.1406 37.5078C85.0625 37.4922 84.9844 37.4844 84.9062 37.4844C84.7969 37.4844 84.6875 37.4922 84.5781 37.5078C84.4844 37.5234 84.3906 37.5312 84.2969 37.5312C84.1719 37.5312 84.0781 37.5156 84.0156 37.4844C83.9688 37.4531 83.9219 37.4219 83.875 37.3906C83.8438 37.3438 83.8047 37.2969 83.7578 37.25C83.7266 37.2031 83.6719 37.1641 83.5938 37.1328C83.4844 37.0859 83.3906 37.0781 83.3125 37.1094C83.25 37.1406 83.1484 37.0938 83.0078 36.9688C82.8203 36.8125 82.6562 36.625 82.5156 36.4062C82.3906 36.1719 82.2656 35.9297 82.1406 35.6797C82.0156 35.4297 81.8828 35.1797 81.7422 34.9297C81.6016 34.6797 81.4375 34.4609 81.25 34.2734H81.0625C80.7812 34.2734 80.5859 34.3906 80.4766 34.625C80.3984 34.5781 80.3203 34.5234 80.2422 34.4609C80.1641 34.3828 80.0781 34.3203 79.9844 34.2734C79.625 34.3828 79.25 34.4766 78.8594 34.5547C78.4688 34.6328 78.0781 34.6719 77.6875 34.6719H77.3594C77.2656 34.6719 77.1641 34.6562 77.0547 34.625C76.8984 34.6875 76.7578 34.7656 76.6328 34.8594C76.5078 34.9375 76.3672 34.9766 76.2109 34.9766C76.1172 34.9766 76.0078 34.9453 75.8828 34.8828C75.7891 34.8828 75.7422 34.9219 75.7422 35C75.7578 35.0781 75.7109 35.1172 75.6016 35.1172H75.3906C75.1719 35.1172 74.9531 35.125 74.7344 35.1406C74.5312 35.1562 74.3203 35.1641 74.1016 35.1641C73.8047 35.1641 73.5 35.125 73.1875 35.0469C73.1094 35.0938 73.0234 35.1172 72.9297 35.1172C72.8672 35.1484 72.8203 35.2031 72.7891 35.2812C72.7578 35.3438 72.7266 35.4062 72.6953 35.4688C72.6641 35.5156 72.6172 35.5625 72.5547 35.6094C72.5078 35.6406 72.4375 35.6484 72.3438 35.6328C72.3125 35.8203 72.2344 35.9688 72.1094 36.0781C71.9844 36.1875 71.9219 36.3516 71.9219 36.5703C71.75 36.6641 71.6094 36.7812 71.5 36.9219C71.3906 37.0625 71.2812 37.2109 71.1719 37.3672C71.0625 37.5234 70.9453 37.6719 70.8203 37.8125C70.7109 37.9531 70.5703 38.0625 70.3984 38.1406C70.3203 38.2344 70.2969 38.3828 70.3281 38.5859C70.1562 38.7266 69.9453 38.8516 69.6953 38.9609C69.4453 39.0703 69.2109 39.125 68.9922 39.125C68.5391 39.125 68.2266 38.8828 68.0547 38.3984C68.0547 38.2422 68.0703 38.0781 68.1016 37.9062C68.1172 37.7188 68.1484 37.5469 68.1953 37.3906C68.2422 37.2188 68.3125 37.0703 68.4062 36.9453C68.5 36.8047 68.6328 36.7031 68.8047 36.6406C68.8047 36.5 68.7578 36.4062 68.6641 36.3594C68.5703 36.2969 68.5312 36.1953 68.5469 36.0547C68.9688 35.8516 69.3359 35.5859 69.6484 35.2578C69.9609 34.9297 70.2422 34.5859 70.4922 34.2266C70.7578 33.8516 71.0234 33.4766 71.2891 33.1016C71.5547 32.7266 71.8516 32.3906 72.1797 32.0938V31.6016C72.6484 31.1016 72.9531 30.5391 73.0938 29.9141C73.2656 29.8828 73.375 29.8047 73.4219 29.6797C73.4844 29.5547 73.5156 29.4062 73.5156 29.2344C73.5938 29.2344 73.6406 29.2031 73.6562 29.1406C73.6875 29.0625 73.7578 29.0391 73.8672 29.0703C74.0078 28.6953 74.1641 28.3516 74.3359 28.0391C74.5078 27.7266 74.6797 27.4141 74.8516 27.1016C75.0234 26.7734 75.1719 26.4375 75.2969 26.0938C75.4375 25.75 75.5391 25.3672 75.6016 24.9453C75.8203 24.9297 75.9375 24.8281 75.9531 24.6406C75.9844 24.4375 76.0156 24.2578 76.0469 24.1016C76.2812 23.8828 76.4531 23.625 76.5625 23.3281C76.6875 23.0312 76.7969 22.7266 76.8906 22.4141C76.9844 22.0859 77.0859 21.7656 77.1953 21.4531C77.3203 21.125 77.4922 20.8359 77.7109 20.5859V20.5156C77.7109 20.4375 77.6797 20.3906 77.6172 20.375C77.5547 20.3438 77.5234 20.2891 77.5234 20.2109C77.5391 20.1953 77.5469 20.1797 77.5469 20.1641C77.7344 20.0859 77.875 19.9609 77.9688 19.7891C78.0625 19.6016 78.2031 19.4688 78.3906 19.3906C78.7188 19.6562 79.0078 19.8203 79.2578 19.8828C79.5078 19.9297 79.8359 19.9688 80.2422 20C80.4453 20.2188 80.5547 20.4844 80.5703 20.7969C80.6016 21.0938 80.6562 21.3906 80.7344 21.6875C80.8594 22.1875 80.9922 22.6797 81.1328 23.1641C81.2891 23.6328 81.4062 24.1172 81.4844 24.6172C81.5312 24.9141 81.6172 25.1953 81.7422 25.4609C81.8672 25.7266 81.9531 26 82 26.2812C82.0312 26.5 82.0312 26.75 82 27.0312C81.9688 27.2969 82 27.5312 82.0938 27.7344L82.2578 28.1094C82.3359 28.2812 82.3984 28.4609 82.4453 28.6484C82.5078 28.8359 82.5625 29.0234 82.6094 29.2109C82.7344 29.6797 82.8438 30.1875 82.9375 30.7344C83.0469 31.2656 83.2109 31.75 83.4297 32.1875C83.5078 32.3438 83.625 32.4531 83.7812 32.5156C83.9531 32.5781 84.1406 32.625 84.3438 32.6562C84.5469 32.6719 84.7422 32.6797 84.9297 32.6797C85.1328 32.6641 85.3047 32.6562 85.4453 32.6562H85.6797C85.7734 32.6562 85.8672 32.6719 85.9609 32.7031C86.0234 32.8281 86.0547 32.9375 86.0547 33.0312C86.0547 33.2188 85.9922 33.3672 85.8672 33.4766C85.7422 33.5859 85.6797 33.7109 85.6797 33.8516C85.6797 33.9297 85.7109 34.0156 85.7734 34.1094C85.7109 34.0938 85.6172 34.0859 85.4922 34.0859C85.1328 34.0859 84.7812 34.1484 84.4375 34.2734C84.5625 34.5391 84.7266 34.7656 84.9297 34.9531C85.1484 35.125 85.375 35.2891 85.6094 35.4453C85.7656 35.3203 85.9297 35.2578 86.1016 35.2578C86.2891 35.2578 86.4609 35.3047 86.6172 35.3984C86.7891 35.4766 86.9688 35.5156 87.1562 35.5156C87.2969 35.5156 87.3984 35.4922 87.4609 35.4453C87.5859 35.5859 87.6875 35.7344 87.7656 35.8906C87.8438 36.0312 87.9453 36.1641 88.0703 36.2891ZM80.7344 32.5391C80.7031 32.2734 80.6484 32.0859 80.5703 31.9766C80.5078 31.8516 80.4531 31.7031 80.4062 31.5312C80.3438 31.3125 80.2969 31.0781 80.2656 30.8281C80.25 30.5781 80.2188 30.3359 80.1719 30.1016C80.0625 29.5703 79.9375 29.0391 79.7969 28.5078C79.6719 27.9766 79.5078 27.4609 79.3047 26.9609C79.3672 26.8672 79.3984 26.7812 79.3984 26.7031V26.6328C79.2578 26.4766 79.1562 26.2891 79.0938 26.0703C79.0312 25.8359 78.9688 25.6094 78.9062 25.3906C78.8594 25.1562 78.7891 24.9453 78.6953 24.7578C78.6172 24.5547 78.4844 24.3906 78.2969 24.2656C78.25 24.3594 78.2266 24.4688 78.2266 24.5938C78.2266 24.7031 78.2344 24.8047 78.25 24.8984C78.2812 24.9922 78.2969 25.0938 78.2969 25.2031C78.1406 25.2812 78.0234 25.4062 77.9453 25.5781C77.8828 25.7344 77.7734 25.8594 77.6172 25.9531C77.4922 26.4531 77.3125 26.9297 77.0781 27.3828C76.8438 27.8203 76.5938 28.2578 76.3281 28.6953C76.0781 29.1328 75.8359 29.5781 75.6016 30.0312C75.3672 30.4688 75.1797 30.9297 75.0391 31.4141C74.8359 31.5547 74.6953 31.7344 74.6172 31.9531C74.5547 32.1719 74.5234 32.3906 74.5234 32.6094C74.6641 32.6875 74.8203 32.7344 74.9922 32.75C75.1797 32.75 75.3594 32.75 75.5312 32.75C75.7031 32.75 75.8672 32.7656 76.0234 32.7969C76.1797 32.8281 76.3203 32.9062 76.4453 33.0312C76.6484 32.9688 76.8672 32.9297 77.1016 32.9141C77.3516 32.8828 77.5547 32.8125 77.7109 32.7031C78.0234 32.8125 78.3594 32.8672 78.7188 32.8672C78.9062 32.8672 79.0859 32.8516 79.2578 32.8203C79.4453 32.7891 79.625 32.75 79.7969 32.7031C79.9375 32.7344 80.0469 32.7891 80.125 32.8672C80.2031 32.9297 80.3203 32.9531 80.4766 32.9375C80.5547 32.875 80.6016 32.8125 80.6172 32.75C80.6328 32.6719 80.6719 32.6016 80.7344 32.5391ZM106.867 22.9297C106.805 23.1328 106.703 23.3203 106.562 23.4922L106.164 23.9844C106.039 24.1406 105.93 24.3125 105.836 24.5C105.758 24.6719 105.734 24.875 105.766 25.1094C105.734 25.1094 105.695 25.1094 105.648 25.1094C105.602 25.0938 105.562 25.0859 105.531 25.0859C105.281 25.0859 105.086 25.1484 104.945 25.2734C104.82 25.3828 104.648 25.4766 104.43 25.5547C104.398 25.4609 104.359 25.375 104.312 25.2969C104.266 25.2031 104.195 25.1406 104.102 25.1094C103.727 25.1875 103.352 25.25 102.977 25.2969C102.602 25.3281 102.227 25.375 101.852 25.4375C101.68 25.4688 101.508 25.5156 101.336 25.5781C101.164 25.625 100.984 25.6719 100.797 25.7188C100.703 25.75 100.602 25.7656 100.492 25.7656C100.383 25.75 100.273 25.75 100.164 25.7656C99.7891 25.7812 99.3828 25.8125 98.9453 25.8594C98.5078 25.8906 98.1172 26.0078 97.7734 26.2109C97.6172 26.1797 97.4531 26.1562 97.2812 26.1406C97.1094 26.125 96.9375 26.1172 96.7656 26.1172C96.3906 26.1172 95.9766 26.1562 95.5234 26.2344C95.0859 26.2969 94.6953 26.4297 94.3516 26.6328C94.2734 26.6016 94.1875 26.5781 94.0938 26.5625C94.0156 26.5469 93.9219 26.5391 93.8125 26.5391C93.7812 26.5391 93.7578 26.5469 93.7422 26.5625C93.7266 26.5625 93.7031 26.5625 93.6719 26.5625C93.6562 26.7031 93.6719 26.8438 93.7188 26.9844C93.7812 27.1094 93.8828 27.2109 94.0234 27.2891C93.9609 27.4609 93.9297 27.6484 93.9297 27.8516C93.9297 28.1172 93.9453 28.3828 93.9766 28.6484C94.0234 28.9141 94.0469 29.1797 94.0469 29.4453C94.0469 29.7422 94.0078 29.9766 93.9297 30.1484C94.0859 30.6172 94.1641 31.1172 94.1641 31.6484C94.1641 31.8359 94.1484 32.0234 94.1172 32.2109C94.1016 32.3828 94.0938 32.5703 94.0938 32.7734C94.0938 32.9453 94.1562 33.0859 94.2812 33.1953C94.4062 33.2891 94.4688 33.4219 94.4688 33.5938C94.4688 33.6562 94.4531 33.7188 94.4219 33.7812C94.6406 33.7344 94.8516 33.6719 95.0547 33.5938C95.2578 33.5 95.4688 33.4531 95.6875 33.4531C95.8125 33.4531 95.9297 33.4766 96.0391 33.5234C96.1641 33.5703 96.2734 33.6328 96.3672 33.7109C96.3516 33.7891 96.3359 33.875 96.3203 33.9688C96.3203 34.0625 96.3203 34.1562 96.3203 34.25C96.3203 34.4219 96.3203 34.5859 96.3203 34.7422C96.3359 34.8828 96.3516 35.0391 96.3672 35.2109C96.2422 35.4297 96.0938 35.625 95.9219 35.7969C95.7656 35.9688 95.6562 36.1875 95.5938 36.4531C95.3594 36.4531 95.1484 36.5078 94.9609 36.6172C94.7891 36.7109 94.625 36.8203 94.4688 36.9453C94.3125 37.0547 94.1562 37.1641 94 37.2734C93.8438 37.3672 93.6719 37.4141 93.4844 37.4141C93.25 37.4141 93.0859 37.3828 92.9922 37.3203C92.8984 37.2422 92.8281 37.1641 92.7812 37.0859C92.7344 37.0078 92.6875 36.9375 92.6406 36.875C92.6094 36.8125 92.5312 36.7891 92.4062 36.8047C92.375 36.6016 92.3125 36.4141 92.2188 36.2422C92.125 36.0547 92.0234 35.875 91.9141 35.7031C91.8203 35.5312 91.7188 35.3594 91.6094 35.1875C91.5156 35 91.4453 34.8125 91.3984 34.625C91.3047 34.2188 91.2656 33.7969 91.2812 33.3594C91.2969 32.9219 91.2266 32.5 91.0703 32.0938C91.1016 31.875 91.125 31.6562 91.1406 31.4375C91.1562 31.2031 91.1641 30.9766 91.1641 30.7578C91.1641 30.3203 91.1484 29.8906 91.1172 29.4688C91.1016 29.0312 91.0859 28.5859 91.0703 28.1328C90.9609 27.9922 90.8906 27.8359 90.8594 27.6641C90.8438 27.4766 90.8281 27.2969 90.8125 27.125C90.7656 27.0781 90.7109 27.0312 90.6484 26.9844C90.6016 26.9375 90.5703 26.875 90.5547 26.7969C90.4297 26.7656 90.3359 26.75 90.2734 26.75C90.0547 26.75 89.8672 26.8047 89.7109 26.9141C89.5703 27.0078 89.4375 27.0547 89.3125 27.0547C89.1875 27.0547 89.0703 27.0391 88.9609 27.0078C88.8516 26.9766 88.7422 26.9609 88.6328 26.9609C88.5391 26.9609 88.4844 26.9844 88.4688 27.0312C88.4688 27.0625 88.4375 27.0938 88.375 27.125C88.3281 27.1562 88.2188 27.1875 88.0469 27.2188C87.875 27.25 87.6797 27.2812 87.4609 27.3125C87.2578 27.3281 87.0547 27.3438 86.8516 27.3594C86.6641 27.375 86.5391 27.3828 86.4766 27.3828C86.2266 27.3828 86.0391 27.3359 85.9141 27.2422C85.7734 27.1328 85.6094 27.0156 85.4219 26.8906C85.4531 26.7969 85.4688 26.7344 85.4688 26.7031C85.4688 26.5469 85.4219 26.4219 85.3281 26.3281C85.2344 26.2188 85.1875 26.125 85.1875 26.0469C85.1875 25.875 85.2578 25.7422 85.3984 25.6484C85.5234 25.5547 85.5938 25.4062 85.6094 25.2031C85.9688 25.0469 86.3359 24.9297 86.7109 24.8516C87.0859 24.7734 87.4688 24.7109 87.8594 24.6641C88.25 24.6172 88.6328 24.5625 89.0078 24.5C89.3984 24.4375 89.7812 24.3359 90.1562 24.1953C90.2656 24.2109 90.3672 24.2266 90.4609 24.2422C90.5703 24.2422 90.6797 24.2422 90.7891 24.2422C91.2578 24.2422 91.7188 24.1953 92.1719 24.1016C92.6406 23.9922 93.1172 23.9375 93.6016 23.9375C93.7266 23.9375 93.8516 23.9453 93.9766 23.9609C94.1016 23.9766 94.2266 24 94.3516 24.0312C94.9766 23.9375 95.5938 23.8359 96.2031 23.7266C96.8281 23.6172 97.4688 23.5234 98.125 23.4453C98.4375 23.4141 98.7422 23.3906 99.0391 23.375C99.3516 23.3438 99.6641 23.3047 99.9766 23.2578C100.086 23.2422 100.164 23.2188 100.211 23.1875C100.273 23.1406 100.305 23.0547 100.305 22.9297C100.445 22.9922 100.602 23.0234 100.773 23.0234C101.039 23.0234 101.297 22.9766 101.547 22.8828C101.797 22.7891 102.055 22.7422 102.32 22.7422C102.383 22.7422 102.438 22.75 102.484 22.7656C102.531 22.7656 102.578 22.7656 102.625 22.7656C102.734 22.7656 102.789 22.7188 102.789 22.625C102.805 22.5156 102.883 22.4453 103.023 22.4141C103.133 22.3828 103.289 22.3594 103.492 22.3438C103.695 22.3281 103.906 22.3125 104.125 22.2969C104.359 22.2656 104.57 22.2344 104.758 22.2031C104.961 22.1562 105.109 22.0938 105.203 22.0156L105.367 21.7578C105.648 21.7734 105.852 21.8984 105.977 22.1328C106.117 22.3516 106.195 22.5938 106.211 22.8594C106.273 22.9219 106.359 22.9531 106.469 22.9531C106.594 22.9375 106.703 22.9297 106.797 22.9297H106.867ZM118.211 27.0547C118.148 27.2109 118.086 27.3594 118.023 27.5C117.961 27.6406 117.914 27.7969 117.883 27.9688C117.773 28.0469 117.648 28.1094 117.508 28.1562C117.383 28.1875 117.25 28.2266 117.109 28.2734C116.969 28.3047 116.836 28.3516 116.711 28.4141C116.602 28.4609 116.516 28.5391 116.453 28.6484C116.406 28.8828 116.383 29.1016 116.383 29.3047C116.383 29.5703 116.43 29.7969 116.523 29.9844C116.477 30.125 116.445 30.2734 116.43 30.4297C116.414 30.5859 116.406 30.7344 116.406 30.875C116.406 31.3906 116.469 31.9062 116.594 32.4219C116.719 32.9219 116.789 33.4297 116.805 33.9453C116.805 34.0234 116.797 34.1094 116.781 34.2031C116.766 34.2969 116.758 34.3828 116.758 34.4609C116.758 34.7891 116.883 35.0078 117.133 35.1172C117.086 35.1953 117.062 35.2656 117.062 35.3281C117.062 35.4531 117.078 35.5625 117.109 35.6562C117.141 35.75 117.148 35.8516 117.133 35.9609C117.211 36.1172 117.289 36.2578 117.367 36.3828C117.445 36.4922 117.5 36.6328 117.531 36.8047C117.422 37.0234 117.289 37.2266 117.133 37.4141C116.977 37.5859 116.867 37.8047 116.805 38.0703C116.742 38.0547 116.672 38.0469 116.594 38.0469C116.484 38.0469 116.398 38.0703 116.336 38.1172C116.273 38.1641 116.219 38.2188 116.172 38.2812C116.141 38.3594 116.102 38.4297 116.055 38.4922C116.008 38.5703 115.945 38.625 115.867 38.6562H115.797C115.719 38.6719 115.648 38.6641 115.586 38.6328C115.539 38.6172 115.492 38.6094 115.445 38.6094C115.414 38.6094 115.352 38.625 115.258 38.6562C115.133 38.5 115.047 38.3125 115 38.0938C114.953 37.8906 114.93 37.6875 114.93 37.4844C114.93 37.2656 114.961 37.0703 115.023 36.8984C114.852 36.7578 114.742 36.5469 114.695 36.2656C114.664 35.9844 114.625 35.75 114.578 35.5625C114.453 34.9844 114.305 34.4219 114.133 33.875C113.977 33.3281 113.883 32.7656 113.852 32.1875C113.836 31.9688 113.828 31.7578 113.828 31.5547V30.3359C113.828 30.1328 113.836 29.9375 113.852 29.75C113.852 29.6094 113.859 29.4766 113.875 29.3516C113.906 29.2109 113.922 29.0703 113.922 28.9297C113.922 28.7422 113.859 28.5625 113.734 28.3906C112.625 28.4375 111.57 28.6406 110.57 29C109.586 29.3438 108.602 29.7578 107.617 30.2422C107.555 30.6016 107.516 30.9531 107.5 31.2969C107.484 31.6406 107.477 31.9922 107.477 32.3516V33.3828C107.477 33.7734 107.492 34.1016 107.523 34.3672C107.602 34.8203 107.828 35.1719 108.203 35.4219C108.594 35.6562 108.984 35.8359 109.375 35.9609C109.359 36.1953 109.312 36.3984 109.234 36.5703C109.156 36.7266 109.055 36.875 108.93 37.0156C108.82 37.1406 108.695 37.2656 108.555 37.3906C108.414 37.5156 108.273 37.6562 108.133 37.8125C108.008 37.7344 107.883 37.6797 107.758 37.6484C107.633 37.6172 107.5 37.6016 107.359 37.6016C107.219 37.5859 107.078 37.5703 106.938 37.5547C106.797 37.5391 106.656 37.5078 106.516 37.4609L106 36.7578C105.828 36.5234 105.641 36.2891 105.438 36.0547V35.8438C105.438 35.4219 105.359 35.0156 105.203 34.625C105.047 34.2344 104.93 33.8359 104.852 33.4297C104.898 33.2891 104.93 33.1484 104.945 33.0078C104.961 32.8672 104.969 32.7188 104.969 32.5625C104.969 32.25 104.953 31.9453 104.922 31.6484C104.906 31.3516 104.914 31.0547 104.945 30.7578H104.828C104.688 30.7578 104.539 30.7969 104.383 30.875C104.227 30.9375 104.07 31.0156 103.914 31.1094C103.773 31.1875 103.633 31.2656 103.492 31.3438C103.367 31.4062 103.258 31.4375 103.164 31.4375C103.117 31.4375 103.07 31.4297 103.023 31.4141C102.977 31.3984 102.922 31.3906 102.859 31.3906C102.781 31.3906 102.688 31.4219 102.578 31.4844C102.469 31.5469 102.352 31.6172 102.227 31.6953C102.086 31.7578 101.945 31.8203 101.805 31.8828C101.664 31.9453 101.523 31.9766 101.383 31.9766C101.164 31.9766 100.945 31.8828 100.727 31.6953C100.695 31.5703 100.688 31.4531 100.703 31.3438C100.703 31.2344 100.703 31.1172 100.703 30.9922C100.703 30.8672 100.68 30.7344 100.633 30.5938C100.742 30.3906 100.891 30.2344 101.078 30.125C101.25 30 101.438 29.8906 101.641 29.7969C101.828 29.6875 102.023 29.5859 102.227 29.4922C102.43 29.3828 102.602 29.2422 102.742 29.0703H102.883C103.102 29.0703 103.297 29.0234 103.469 28.9297C103.656 28.8359 103.867 28.7969 104.102 28.8125C104.18 28.7812 104.234 28.6641 104.266 28.4609L104.359 28.4844C104.703 28.4844 105.008 28.3672 105.273 28.1328C105.445 27.1641 105.586 26.1875 105.695 25.2031C105.805 24.2188 105.859 23.2344 105.859 22.25C105.859 22.1562 105.828 22.0625 105.766 21.9688C105.734 21.8438 105.719 21.7266 105.719 21.6172V21.2656C105.719 21.0938 105.727 20.9141 105.742 20.7266C105.758 20.5391 105.797 20.3516 105.859 20.1641C106.016 20.0703 106.18 20.0234 106.352 20.0234C106.555 20.0234 106.75 20.0547 106.938 20.1172C107.141 20.1641 107.336 20.2031 107.523 20.2344C107.664 20.375 107.766 20.5312 107.828 20.7031C107.906 20.875 107.953 21.0547 107.969 21.2422C107.984 21.4141 107.984 21.5938 107.969 21.7812C107.969 21.9531 107.969 22.125 107.969 22.2969C107.969 22.6406 108.008 22.9766 108.086 23.3047C108.164 23.6328 108.203 23.9531 108.203 24.2656C108.203 24.3438 108.172 24.4062 108.109 24.4531C108.062 24.4844 108.039 24.5859 108.039 24.7578C108.039 24.9297 108.055 25.1094 108.086 25.2969C108.117 25.4844 108.133 25.6719 108.133 25.8594C108.133 26.0781 108.102 26.3047 108.039 26.5391C107.977 26.7734 107.922 27 107.875 27.2188C108.812 27.1406 109.773 27.0234 110.758 26.8672C111.742 26.7109 112.68 26.4609 113.57 26.1172C113.586 26.0859 113.594 26.0391 113.594 25.9766C113.594 25.8828 113.586 25.7891 113.57 25.6953C113.555 25.6016 113.547 25.5 113.547 25.3906C113.547 25.2031 113.609 25.0547 113.734 24.9453C113.656 24.5078 113.602 24.0703 113.57 23.6328C113.539 23.1953 113.523 22.7578 113.523 22.3203V20.9844C113.523 20.5469 113.516 20.1094 113.5 19.6719C113.625 19.5938 113.758 19.5547 113.898 19.5547C114.07 19.5547 114.227 19.6016 114.367 19.6953C114.523 19.7734 114.703 19.8125 114.906 19.8125C115.047 19.8125 115.164 19.7891 115.258 19.7422C115.43 19.8984 115.547 20.1016 115.609 20.3516C115.672 20.6016 115.727 20.8594 115.773 21.125C115.82 21.3906 115.867 21.6562 115.914 21.9219C115.977 22.1719 116.094 22.375 116.266 22.5312L116.289 22.6016C116.289 22.6641 116.258 22.7109 116.195 22.7422C116.133 22.7734 116.102 22.8359 116.102 22.9297V23.0234C116.164 23.2734 116.211 23.5312 116.242 23.7969C116.273 24.0625 116.297 24.3359 116.312 24.6172C116.344 24.8828 116.383 25.1484 116.43 25.4141C116.477 25.6641 116.562 25.8984 116.688 26.1172C116.766 26.1016 116.867 26.0938 116.992 26.0938C117.305 26.0938 117.547 26.2031 117.719 26.4219C117.906 26.625 118.07 26.8359 118.211 27.0547ZM134.547 23.0938V23.1875C134.438 23.2188 134.383 23.2969 134.383 23.4219C134.211 23.5 134.031 23.5625 133.844 23.6094C133.656 23.6406 133.477 23.6953 133.305 23.7734C133.133 23.7578 132.953 23.75 132.766 23.75C132.594 23.7344 132.422 23.7266 132.25 23.7266C131.781 23.7266 131.312 23.7422 130.844 23.7734C130.375 23.8047 129.906 23.8047 129.438 23.7734C129.219 23.8984 128.977 24 128.711 24.0781C128.461 24.1406 128.219 24.1719 127.984 24.1719C127.797 24.1719 127.633 24.1484 127.492 24.1016C127.117 24.2891 126.703 24.4453 126.25 24.5703C125.812 24.6953 125.367 24.8203 124.914 24.9453C124.461 25.0547 124.023 25.1875 123.602 25.3438C123.195 25.4844 122.836 25.6875 122.523 25.9531C122.492 26.1719 122.469 26.3906 122.453 26.6094C122.438 26.8125 122.43 27.0156 122.43 27.2188C122.43 27.4375 122.438 27.6406 122.453 27.8281C122.484 28.0156 122.539 28.2031 122.617 28.3906C122.695 28.4219 122.781 28.4453 122.875 28.4609C122.984 28.4766 123.078 28.4844 123.156 28.4844C123.234 28.4844 123.312 28.4766 123.391 28.4609C123.469 28.4297 123.523 28.375 123.555 28.2969C123.789 28.2656 124.023 28.2578 124.258 28.2734C124.492 28.2734 124.727 28.2734 124.961 28.2734C125.195 28.2734 125.422 28.2656 125.641 28.25C125.875 28.2344 126.102 28.1953 126.32 28.1328C126.57 28.0703 126.812 28.0312 127.047 28.0156C127.297 28 127.539 27.9844 127.773 27.9688C128.008 27.9531 128.25 27.9297 128.5 27.8984C128.75 27.8516 129.008 27.7656 129.273 27.6406C129.477 27.7188 129.68 27.7578 129.883 27.7578C130.102 27.7578 130.312 27.7734 130.516 27.8047C130.625 27.8828 130.711 27.9688 130.773 28.0625C130.852 28.1562 130.891 28.2656 130.891 28.3906C130.891 28.6094 130.812 28.8281 130.656 29.0469C130.5 29.2656 130.375 29.4688 130.281 29.6562H130.023C129.648 29.6562 129.281 29.7109 128.922 29.8203C128.578 29.9141 128.227 30.0312 127.867 30.1719C127.523 30.2969 127.172 30.4141 126.812 30.5234C126.469 30.6172 126.109 30.6641 125.734 30.6641C125.672 30.6641 125.633 30.7031 125.617 30.7812C125.617 30.8438 125.602 30.8906 125.57 30.9219C125.492 30.9062 125.375 30.8984 125.219 30.8984C124.859 30.8984 124.516 30.9375 124.188 31.0156C123.859 31.0938 123.523 31.1328 123.18 31.1328C123.086 31.1328 122.992 31.1328 122.898 31.1328C122.805 31.1172 122.711 31.1016 122.617 31.0859C122.539 31.2109 122.438 31.2969 122.312 31.3438C122.188 31.375 122.07 31.4375 121.961 31.5312C121.914 31.6719 121.883 31.8438 121.867 32.0469C121.867 32.25 121.859 32.4609 121.844 32.6797C121.844 32.8828 121.828 33.0781 121.797 33.2656C121.766 33.4531 121.703 33.6016 121.609 33.7109C121.625 33.7891 121.688 33.8203 121.797 33.8047C121.906 33.7734 121.961 33.8203 121.961 33.9453C121.961 34.0859 121.945 34.2344 121.914 34.3906C121.883 34.5469 121.867 34.7031 121.867 34.8594C121.867 35.1562 121.898 35.4844 121.961 35.8438C122.039 36.1875 122.148 36.5078 122.289 36.8047C122.445 37.1016 122.648 37.3516 122.898 37.5547C123.148 37.7422 123.461 37.8359 123.836 37.8359C124.086 37.8359 124.32 37.7891 124.539 37.6953C124.758 37.6016 124.938 37.4453 125.078 37.2266L125.195 37.2031C125.258 37.2031 125.312 37.2109 125.359 37.2266C125.422 37.2422 125.484 37.25 125.547 37.25C125.641 37.25 125.758 37.1953 125.898 37.0859C126.055 36.9609 126.219 36.8203 126.391 36.6641C126.578 36.5078 126.766 36.3594 126.953 36.2188C127.141 36.0625 127.32 35.9531 127.492 35.8906C127.602 35.6719 127.703 35.4531 127.797 35.2344C127.906 35.0156 128.062 34.8438 128.266 34.7188V34.0391C128.422 33.8672 128.586 33.7109 128.758 33.5703C128.945 33.4297 129.086 33.25 129.18 33.0312C129.258 33.0625 129.328 33.0859 129.391 33.1016C129.469 33.1172 129.547 33.125 129.625 33.125C129.703 33.125 129.781 33.1172 129.859 33.1016C129.953 33.0859 130.039 33.0625 130.117 33.0312C130.242 33.2031 130.336 33.3984 130.398 33.6172C130.477 33.8203 130.57 34.0156 130.68 34.2031C130.539 34.4844 130.375 34.8203 130.188 35.2109C130 35.6016 129.797 35.9922 129.578 36.3828C129.359 36.7734 129.125 37.1484 128.875 37.5078C128.641 37.8516 128.406 38.1172 128.172 38.3047C128.125 38.3516 128.023 38.4062 127.867 38.4688C127.695 38.5938 127.539 38.7109 127.398 38.8203C127.258 38.9453 127.125 39.0859 127 39.2422C126.547 39.3828 126.109 39.5703 125.688 39.8047C125.281 40.0391 124.875 40.2656 124.469 40.4844C124.281 40.4375 124.078 40.4141 123.859 40.4141C123.672 40.4141 123.484 40.4219 123.297 40.4375C123.109 40.4688 122.906 40.4844 122.688 40.4844C122.625 40.4062 122.531 40.3516 122.406 40.3203C122.297 40.3047 122.258 40.2266 122.289 40.0859C121.758 40.0547 121.328 39.9062 121 39.6406C120.672 39.3906 120.391 39.0781 120.156 38.7031C119.938 38.3281 119.758 37.9219 119.617 37.4844C119.477 37.0469 119.328 36.625 119.172 36.2188V36.1484C119.172 36.0703 119.203 36.0234 119.266 36.0078C119.328 35.9922 119.359 35.9453 119.359 35.8672C119.359 35.8359 119.352 35.8125 119.336 35.7969C119.289 35.625 119.25 35.4766 119.219 35.3516C119.188 35.2266 119.172 35.0781 119.172 34.9062C119.172 34.6562 119.188 34.4141 119.219 34.1797C119.25 33.9297 119.266 33.6797 119.266 33.4297C119.266 33.1797 119.234 32.9609 119.172 32.7734C119.234 32.6953 119.289 32.5938 119.336 32.4688C119.367 32.3281 119.391 32.1875 119.406 32.0469C119.422 31.9062 119.43 31.7656 119.43 31.625C119.445 31.4844 119.469 31.3594 119.5 31.25C119.438 31.0781 119.383 30.9297 119.336 30.8047C119.289 30.6641 119.266 30.5 119.266 30.3125V30.1484C119.422 29.8828 119.555 29.6094 119.664 29.3281C119.773 29.0469 119.891 28.7578 120.016 28.4609V28.3906C120.016 27.9375 120 27.4844 119.969 27.0312C119.938 26.5781 119.922 26.125 119.922 25.6719V25.2266C119.922 25.0703 119.93 24.9219 119.945 24.7812C120.07 24.7188 120.164 24.6328 120.227 24.5234C120.289 24.4141 120.383 24.3281 120.508 24.2656H121.281L121.422 24.0312C121.469 23.9531 121.5 23.8672 121.516 23.7734C121.688 23.7266 121.852 23.6641 122.008 23.5859C122.18 23.4922 122.336 23.3984 122.477 23.3047C122.695 23.1797 122.891 23.0703 123.062 22.9766C123.25 22.8672 123.43 22.7812 123.602 22.7188C123.789 22.6406 123.984 22.5781 124.188 22.5312C124.391 22.4844 124.625 22.4453 124.891 22.4141C125.016 22.4141 125.094 22.3906 125.125 22.3438C125.172 22.2969 125.234 22.2422 125.312 22.1797C125.5 22.2109 125.688 22.2422 125.875 22.2734C126.062 22.2891 126.25 22.2969 126.438 22.2969C126.812 22.2969 127.164 22.2266 127.492 22.0859C127.961 22.0859 128.422 22.0781 128.875 22.0625C129.344 22.0469 129.812 22.0391 130.281 22.0391C130.688 22.0391 131.094 22.0547 131.5 22.0859C131.906 22.1172 132.305 22.1719 132.695 22.25C132.836 22.2031 132.992 22.1797 133.164 22.1797C133.352 22.1797 133.539 22.2031 133.727 22.25C133.93 22.2812 134.125 22.2812 134.312 22.25C134.328 22.4219 134.367 22.5703 134.43 22.6953C134.508 22.8047 134.547 22.9375 134.547 23.0938ZM163.398 33.9219C163.367 34.1562 163.281 34.3359 163.141 34.4609C163.016 34.5859 162.867 34.7031 162.695 34.8125C162.617 34.7969 162.539 34.7891 162.461 34.7891C162.398 34.7734 162.328 34.7656 162.25 34.7656C161.766 34.75 161.305 34.8125 160.867 34.9531C160.445 35.0938 160.008 35.1953 159.555 35.2578C159.398 35.2891 159.25 35.3047 159.109 35.3047C158.984 35.2891 158.852 35.2969 158.711 35.3281C158.211 35.4062 157.68 35.4688 157.117 35.5156C156.555 35.5625 155.992 35.625 155.43 35.7031C154.867 35.7656 154.312 35.8516 153.766 35.9609C153.234 36.0547 152.734 36.1953 152.266 36.3828C152.219 36.3516 152.172 36.3203 152.125 36.2891C152.078 36.2422 152.023 36.2188 151.961 36.2188C151.805 36.2188 151.656 36.2422 151.516 36.2891C151.375 36.3359 151.234 36.3516 151.094 36.3359C150.938 36.4297 150.766 36.5 150.578 36.5469C150.406 36.5781 150.227 36.6094 150.039 36.6406C149.867 36.6562 149.695 36.6875 149.523 36.7344C149.352 36.7812 149.188 36.8672 149.031 36.9922C148.906 36.9297 148.75 36.8984 148.562 36.8984C148.391 36.8828 148.273 36.8203 148.211 36.7109C147.852 36.8828 147.469 36.9922 147.062 37.0391C146.672 37.0859 146.273 37.1016 145.867 37.0859C145.602 37.0703 145.297 37.0312 144.953 36.9688C144.609 36.9062 144.266 36.8203 143.922 36.7109C143.578 36.5859 143.258 36.4453 142.961 36.2891C142.664 36.1172 142.438 35.9141 142.281 35.6797C142.172 35.5234 142.094 35.3516 142.047 35.1641C142 34.9766 141.891 34.8359 141.719 34.7422C141.766 34.3828 141.82 34.0312 141.883 33.6875C141.945 33.3438 142.008 32.9922 142.07 32.6328C142.383 32.3672 142.68 32.0859 142.961 31.7891C143.242 31.4922 143.508 31.1797 143.758 30.8516C144.055 30.7109 144.328 30.5391 144.578 30.3359C144.844 30.1328 145.102 29.9297 145.352 29.7266C145.617 29.5078 145.875 29.2969 146.125 29.0938C146.391 28.8906 146.672 28.7109 146.969 28.5547C147.016 28.4453 147.078 28.3594 147.156 28.2969C147.25 28.2188 147.344 28.1484 147.438 28.0859C147.531 28.0078 147.617 27.9297 147.695 27.8516C147.773 27.7578 147.828 27.6484 147.859 27.5234C148.406 27.1953 148.883 26.7812 149.289 26.2812C149.695 25.7812 149.961 25.2188 150.086 24.5938C149.82 24.375 149.516 24.2344 149.172 24.1719C148.844 24.0938 148.5 24.0391 148.141 24.0078C147.828 23.9922 147.5 23.9922 147.156 24.0078C146.828 24.0234 146.492 24.0156 146.148 23.9844C145.805 24.0938 145.445 24.1641 145.07 24.1953C144.711 24.2266 144.352 24.2578 143.992 24.2891C143.633 24.3047 143.273 24.3516 142.914 24.4297C142.57 24.4922 142.234 24.6172 141.906 24.8047C141.844 24.8047 141.781 24.7969 141.719 24.7812C141.672 24.7656 141.617 24.7578 141.555 24.7578C141.055 24.7422 140.586 24.8438 140.148 25.0625C139.711 25.2656 139.281 25.4688 138.859 25.6719C138.828 25.7344 138.812 25.7812 138.812 25.8125C138.812 25.9062 138.828 26 138.859 26.0938C138.906 26.1719 138.93 26.2578 138.93 26.3516C138.914 26.3672 138.906 26.3828 138.906 26.3984C138.906 26.4141 138.898 26.4297 138.883 26.4453C138.867 26.5234 138.844 26.5938 138.812 26.6562C138.797 26.7188 138.773 26.7891 138.742 26.8672C138.57 27.3672 138.477 27.8594 138.461 28.3438C138.445 28.75 138.445 29.1484 138.461 29.5391C138.477 29.9297 138.477 30.3281 138.461 30.7344C138.43 31.2344 138.352 31.7031 138.227 32.1406C138.305 32.5156 138.375 32.9141 138.438 33.3359C138.5 33.7422 138.578 34.1484 138.672 34.5547C138.766 34.9609 138.875 35.3594 139 35.75C139.141 36.125 139.32 36.4844 139.539 36.8281C139.523 36.8594 139.531 36.8828 139.562 36.8984C139.594 36.9141 139.625 36.9219 139.656 36.9219H139.844C139.922 36.9219 139.953 36.9531 139.938 37.0156C139.969 37.0625 139.992 37.1094 140.008 37.1562C140.023 37.1875 140.055 37.2188 140.102 37.25C140.133 37.2969 140.133 37.3594 140.102 37.4375C140.086 37.75 140.008 38.0391 139.867 38.3047C139.727 38.5703 139.641 38.8594 139.609 39.1719C139.422 39.2188 139.25 39.2422 139.094 39.2422C138.828 39.2266 138.594 39.1484 138.391 39.0078C138.188 38.8828 138 38.7266 137.828 38.5391C137.656 38.3516 137.492 38.1641 137.336 37.9766C137.18 37.7734 137.008 37.6016 136.82 37.4609C136.711 37.0234 136.602 36.5391 136.492 36.0078C136.398 35.4766 136.234 35.0234 136 34.6484C136.062 34.5078 136.094 34.3359 136.094 34.1328C136.109 33.8203 136.078 33.5156 136 33.2188C135.938 32.9062 135.922 32.5938 135.953 32.2812C135.953 32.1094 135.969 31.9375 136 31.7656C136.047 31.5938 136.078 31.4219 136.094 31.25C136.109 30.9844 136.078 30.7266 136 30.4766C135.938 30.2266 135.914 29.9688 135.93 29.7031C135.945 29.5781 135.969 29.4609 136 29.3516C136.047 29.2266 136.109 29.1172 136.188 29.0234C136.109 28.8359 136.086 28.6562 136.117 28.4844C136.133 28.2188 136.164 27.9688 136.211 27.7344C136.258 27.5 136.289 27.2656 136.305 27.0312C136.305 26.9062 136.297 26.7891 136.281 26.6797C136.266 26.5547 136.242 26.4375 136.211 26.3281L136 26.2578C135.906 26.2578 135.812 26.2812 135.719 26.3281C135.641 26.375 135.57 26.4297 135.508 26.4922C135.445 26.5547 135.391 26.6094 135.344 26.6562C135.297 26.6875 135.25 26.7031 135.203 26.7031C135.172 26.7031 135.133 26.7031 135.086 26.7031C135.055 26.6875 135.023 26.6797 134.992 26.6797C134.961 26.6797 134.898 26.7109 134.805 26.7734C134.727 26.8359 134.625 26.9062 134.5 26.9844C134.391 27.0469 134.281 27.1172 134.172 27.1953C134.062 27.2578 133.977 27.2969 133.914 27.3125C133.742 27.2812 133.602 27.2266 133.492 27.1484C133.398 27.0547 133.305 26.9688 133.211 26.8906C133.133 26.7969 133.047 26.7188 132.953 26.6562C132.859 26.5781 132.742 26.5469 132.602 26.5625C132.555 26.4688 132.531 26.3672 132.531 26.2578C132.516 26.1484 132.516 26.0391 132.531 25.9297V25.5547C132.641 25.3516 132.789 25.1875 132.977 25.0625C133.148 24.9219 133.336 24.8047 133.539 24.7109L134.148 24.4297C134.352 24.3359 134.539 24.2188 134.711 24.0781H134.922C135.203 24.0938 135.445 24.0391 135.648 23.9141C135.867 23.7891 136.07 23.6484 136.258 23.4922C136.445 23.3203 136.633 23.1484 136.82 22.9766C137.023 22.8047 137.242 22.6719 137.477 22.5781C137.648 22.6562 137.828 22.7266 138.016 22.7891C138.203 22.8359 138.398 22.8672 138.602 22.8828C138.805 22.8828 139.016 22.8516 139.234 22.7891C139.453 22.7266 139.625 22.6094 139.75 22.4375C139.828 22.4688 139.891 22.4922 139.938 22.5078C140 22.5078 140.07 22.5078 140.148 22.5078C140.383 22.5234 140.617 22.4922 140.852 22.4141C141.086 22.3203 141.312 22.2109 141.531 22.0859C141.844 22.1016 142.148 22.0859 142.445 22.0391C142.758 21.9766 143.062 21.9141 143.359 21.8516C143.672 21.7891 143.977 21.7344 144.273 21.6875C144.586 21.625 144.898 21.6016 145.211 21.6172C145.727 21.6328 146.234 21.5859 146.734 21.4766C147.234 21.3672 147.742 21.3281 148.258 21.3594C148.617 21.375 148.969 21.4062 149.312 21.4531C149.672 21.4844 150.031 21.4922 150.391 21.4766C150.594 21.5703 150.773 21.6562 150.93 21.7344C151.102 21.7969 151.312 21.8125 151.562 21.7812C152.062 22.2031 152.516 22.6953 152.922 23.2578V23.6562C152.906 24.0156 152.844 24.3672 152.734 24.7109C152.625 25.0547 152.492 25.3984 152.336 25.7422C152.195 26.0703 152.039 26.3984 151.867 26.7266C151.695 27.0391 151.531 27.3516 151.375 27.6641C150.359 28.5859 149.344 29.5 148.328 30.4062C147.312 31.3125 146.266 32.1875 145.188 33.0312C145.156 33.1875 145.109 33.3281 145.047 33.4531C145 33.5781 144.969 33.7109 144.953 33.8516C144.953 33.9297 144.961 33.9922 144.977 34.0391C145.086 34.0703 145.18 34.1328 145.258 34.2266C145.352 34.3047 145.383 34.4141 145.352 34.5547H145.562C145.641 34.5547 145.68 34.5859 145.68 34.6484L146.055 34.6719C146.648 34.7031 147.242 34.6875 147.836 34.625C148.43 34.5625 149.023 34.4922 149.617 34.4141C150.227 34.3359 150.828 34.2656 151.422 34.2031C152.016 34.125 152.609 34.0781 153.203 34.0625C153.344 34.0156 153.492 33.9766 153.648 33.9453C153.805 33.9141 153.945 33.8516 154.07 33.7578H154.141C154.25 33.7578 154.328 33.7891 154.375 33.8516C154.438 33.9141 154.523 33.9531 154.633 33.9688C154.711 33.9688 154.789 33.9531 154.867 33.9219C154.961 33.8906 155.055 33.8672 155.148 33.8516C155.367 33.7891 155.594 33.75 155.828 33.7344C156.078 33.7188 156.32 33.6953 156.555 33.6641C157.461 33.5859 158.359 33.5391 159.25 33.5234C160.141 33.4922 161.031 33.375 161.922 33.1719C162 33.2812 162.109 33.3594 162.25 33.4062C162.391 33.4375 162.539 33.4766 162.695 33.5234C162.852 33.5547 162.992 33.5938 163.117 33.6406C163.258 33.6875 163.352 33.7812 163.398 33.9219ZM161.805 34.7891C161.727 34.9141 161.633 35.0312 161.523 35.1406C161.414 35.2344 161.312 35.3359 161.219 35.4453C161.109 35.4922 160.984 35.5156 160.844 35.5156C160.719 35.5156 160.594 35.5156 160.469 35.5156C160.359 35.5 160.25 35.5 160.141 35.5156C160.047 35.5156 159.969 35.5469 159.906 35.6094C159.781 35.5781 159.688 35.5234 159.625 35.4453C159.562 35.3516 159.453 35.2969 159.297 35.2812C159.234 35.2656 159.172 35.2656 159.109 35.2812C158.875 35.0156 158.656 34.7344 158.453 34.4375C158.266 34.1406 158.086 33.8594 157.914 33.5938C157.898 33.0156 157.852 32.4297 157.773 31.8359C157.758 31.6953 157.734 31.5547 157.703 31.4141C157.672 31.2734 157.648 31.1406 157.633 31.0156C157.633 30.8594 157.641 30.7109 157.656 30.5703C157.688 30.4141 157.711 30.2734 157.727 30.1484C157.789 29.6953 157.859 29.25 157.938 28.8125C158.016 28.375 158.086 27.9297 158.148 27.4766C158.211 27.0703 158.242 26.6484 158.242 26.2109C158.242 25.7578 158.172 25.3359 158.031 24.9453L158.008 24.8281C158.039 24.7031 158.07 24.6016 158.102 24.5234C158.148 24.4297 158.18 24.3281 158.195 24.2188C158.227 24.0469 158.188 23.9219 158.078 23.8438C158.125 23.7188 158.203 23.6406 158.312 23.6094C158.422 23.5625 158.484 23.4688 158.5 23.3281C158.516 23.2656 158.516 23.2031 158.5 23.1406C158.625 23.0938 158.75 23.0547 158.875 23.0234C159.016 22.9766 159.148 22.9688 159.273 23C159.477 23.0312 159.656 23.1016 159.812 23.2109C159.969 23.3047 160.117 23.4141 160.258 23.5391C160.508 24.2891 160.609 25.0859 160.562 25.9297C160.516 26.7578 160.438 27.5938 160.328 28.4375C160.219 29.2812 160.148 30.1094 160.117 30.9219C160.086 31.7188 160.211 32.4609 160.492 33.1484L160.539 33.1719C160.617 33.1875 160.68 33.1641 160.727 33.1016C160.773 33.0234 160.836 32.9922 160.914 33.0078C160.977 33.0391 161.016 33.0547 161.031 33.0547C161.094 33.3672 161.195 33.6641 161.336 33.9453C161.477 34.2266 161.633 34.5078 161.805 34.7891ZM179.453 22.6016C179.422 22.7891 179.375 22.9531 179.312 23.0938C179.266 23.2188 179.258 23.3906 179.289 23.6094C179.133 23.625 179.008 23.6797 178.914 23.7734C178.836 23.8516 178.766 23.9453 178.703 24.0547C178.656 24.1641 178.602 24.2812 178.539 24.4062C178.492 24.5156 178.43 24.6172 178.352 24.7109C178.477 25.2734 178.547 25.8438 178.562 26.4219C178.578 27 178.617 27.5703 178.68 28.1328C178.758 28.8516 178.875 29.5625 179.031 30.2656C179.203 30.9531 179.289 31.6562 179.289 32.375C179.289 32.5938 179.281 32.7969 179.266 32.9844C179.266 33.1719 179.266 33.3672 179.266 33.5703C179.266 33.6953 179.266 33.8281 179.266 33.9688C179.281 34.0938 179.289 34.2188 179.289 34.3438C179.289 34.7969 179.227 35.25 179.102 35.7031C178.992 36.1562 178.906 36.6094 178.844 37.0625C178.656 37.2344 178.492 37.4219 178.352 37.625C178.227 37.8281 178.094 38.0156 177.953 38.1875C177.812 38.3594 177.648 38.5078 177.461 38.6328C177.273 38.7734 177.039 38.8672 176.758 38.9141C176.711 39.0703 176.617 39.1875 176.477 39.2656C176.352 39.3438 176.242 39.4531 176.148 39.5938H176.102C175.711 39.5938 175.375 39.5391 175.094 39.4297C174.812 39.3203 174.547 39.1953 174.297 39.0547C174.062 38.9141 173.82 38.7656 173.57 38.6094C173.32 38.4531 173.031 38.3281 172.703 38.2344C172.266 37.875 171.867 37.4844 171.508 37.0625C171.148 36.625 170.742 36.2344 170.289 35.8906C170.18 35.5781 170.031 35.3203 169.844 35.1172C169.672 34.9141 169.5 34.6797 169.328 34.4141C169.25 34.3047 169.188 34.2031 169.141 34.1094C169.109 34.0156 169.062 33.9062 169 33.7812C168.953 33.6562 168.875 33.5703 168.766 33.5234C168.672 33.4766 168.586 33.4219 168.508 33.3594C168.383 32.875 168.203 32.4297 167.969 32.0234C167.734 31.6172 167.461 31.2266 167.148 30.8516C167.055 31.0234 166.977 31.2109 166.914 31.4141C166.867 31.6016 166.82 31.7969 166.773 32C166.727 32.1875 166.664 32.3828 166.586 32.5859C166.523 32.7734 166.438 32.9453 166.328 33.1016V33.1719C166.328 33.25 166.359 33.2969 166.422 33.3125C166.484 33.3281 166.516 33.375 166.516 33.4531C166.516 33.4688 166.508 33.4844 166.492 33.5C166.492 33.5156 166.492 33.5312 166.492 33.5469C166.414 33.6094 166.352 33.6875 166.305 33.7812C166.273 33.875 166.195 33.9297 166.07 33.9453C166.086 34.0234 166.094 34.1016 166.094 34.1797V34.3906C166.094 34.8438 166.039 35.2969 165.93 35.75C165.836 36.2031 165.789 36.6641 165.789 37.1328V37.4375C165.789 37.5469 165.797 37.6484 165.812 37.7422C165.844 37.8359 165.891 37.9297 165.953 38.0234C166.016 38.1172 166.047 38.2031 166.047 38.2812C166.047 38.3906 166 38.4922 165.906 38.5859C166.016 38.6641 166.141 38.75 166.281 38.8438C166.422 38.9375 166.547 39.0391 166.656 39.1484C166.781 39.2734 166.883 39.3984 166.961 39.5234C167.039 39.6641 167.078 39.8125 167.078 39.9688C167.078 40.2344 166.992 40.4219 166.82 40.5312C166.648 40.6406 166.438 40.7266 166.188 40.7891C165.953 40.8516 165.703 40.9062 165.438 40.9531C165.188 41.0156 164.977 41.1172 164.805 41.2578H164.734C164.547 41.2578 164.406 41.2031 164.312 41.0938C164.219 40.9844 164.078 40.9297 163.891 40.9297C163.594 40.4453 163.391 39.8984 163.281 39.2891C163.172 38.6953 163.117 38.125 163.117 37.5781C163.117 36.9062 163.18 36.2344 163.305 35.5625C163.414 34.8906 163.555 34.2266 163.727 33.5703C163.883 32.9141 164.055 32.2656 164.242 31.625C164.445 30.9688 164.633 30.3125 164.805 29.6562L164.828 29.5859C164.828 29.5078 164.805 29.4531 164.758 29.4219C164.727 29.3906 164.711 29.3438 164.711 29.2812C164.711 29.25 164.719 29.2344 164.734 29.2344C164.781 29.0781 164.828 28.9297 164.875 28.7891C164.938 28.6484 164.984 28.4922 165.016 28.3203C165.109 27.8828 165.172 27.4375 165.203 26.9844C165.25 26.5156 165.273 26.0547 165.273 25.6016C165.289 25.1484 165.305 24.6953 165.32 24.2422C165.352 23.7734 165.406 23.3125 165.484 22.8594C165.609 22.7344 165.727 22.6016 165.836 22.4609C165.945 22.3203 166.086 22.1953 166.258 22.0859C166.57 22.1016 166.883 22.1484 167.195 22.2266C167.508 22.3047 167.805 22.4297 168.086 22.6016C168.273 23.2734 168.398 23.9453 168.461 24.6172C168.539 25.2891 168.664 25.9609 168.836 26.6328V26.7031C168.836 26.7812 168.875 26.8203 168.953 26.8203C169.047 26.8047 169.117 26.8281 169.164 26.8906C169.133 26.9375 169.109 26.9922 169.094 27.0547C169.094 27.1172 169.094 27.1797 169.094 27.2422V27.6406C169.125 27.7656 169.164 27.8984 169.211 28.0391C169.258 28.1797 169.359 28.2656 169.516 28.2969C169.594 28.7969 169.711 29.2578 169.867 29.6797C170.023 30.1016 170.203 30.5078 170.406 30.8984C170.609 31.2891 170.828 31.6797 171.062 32.0703C171.297 32.4453 171.539 32.8438 171.789 33.2656C172.18 33.5625 172.516 33.9062 172.797 34.2969C173.078 34.6719 173.359 35.0391 173.641 35.3984C173.938 35.7422 174.266 36.0469 174.625 36.3125C175 36.5781 175.484 36.7422 176.078 36.8047C176.156 36.7422 176.211 36.6562 176.242 36.5469L176.359 36.2188C176.406 36.1094 176.453 36.0156 176.5 35.9375C176.562 35.8438 176.648 35.7734 176.758 35.7266C176.789 35.2891 176.82 34.8438 176.852 34.3906C176.898 33.9375 177 33.5078 177.156 33.1016C177.078 32.9609 177.039 32.7891 177.039 32.5859C177.039 32.4297 177.047 32.2812 177.062 32.1406C177.094 32 177.109 31.8594 177.109 31.7188C177.109 31.4219 177.047 31.1797 176.922 30.9922C176.922 30.8828 176.93 30.7734 176.945 30.6641C176.961 30.5391 177.008 30.4219 177.086 30.3125C176.961 30 176.859 29.6719 176.781 29.3281C176.719 28.9844 176.688 28.6328 176.688 28.2734C176.688 28.0703 176.711 27.8594 176.758 27.6406C176.664 27.4062 176.602 27.1328 176.57 26.8203L176.477 25.8594C176.445 25.5312 176.398 25.2266 176.336 24.9453C176.273 24.6641 176.156 24.4375 175.984 24.2656C176.078 24.125 176.125 23.9609 176.125 23.7734C176.125 23.4609 176.078 23.1641 175.984 22.8828C175.891 22.6016 175.844 22.3047 175.844 21.9922C175.844 21.7734 175.891 21.5547 175.984 21.3359C176.328 21.3516 176.664 21.3906 176.992 21.4531C177.336 21.5 177.672 21.5234 178 21.5234C178.094 21.6484 178.203 21.75 178.328 21.8281C178.453 21.9062 178.586 21.9844 178.727 22.0625C178.867 22.125 179 22.1953 179.125 22.2734C179.266 22.3516 179.375 22.4609 179.453 22.6016ZM196.633 23.0938V23.1875C196.523 23.2188 196.469 23.2969 196.469 23.4219C196.297 23.5 196.117 23.5625 195.93 23.6094C195.742 23.6406 195.562 23.6953 195.391 23.7734C195.219 23.7578 195.039 23.75 194.852 23.75C194.68 23.7344 194.508 23.7266 194.336 23.7266C193.867 23.7266 193.398 23.7422 192.93 23.7734C192.461 23.8047 191.992 23.8047 191.523 23.7734C191.305 23.8984 191.062 24 190.797 24.0781C190.547 24.1406 190.305 24.1719 190.07 24.1719C189.883 24.1719 189.719 24.1484 189.578 24.1016C189.203 24.2891 188.789 24.4453 188.336 24.5703C187.898 24.6953 187.453 24.8203 187 24.9453C186.547 25.0547 186.109 25.1875 185.688 25.3438C185.281 25.4844 184.922 25.6875 184.609 25.9531C184.578 26.1719 184.555 26.3906 184.539 26.6094C184.523 26.8125 184.516 27.0156 184.516 27.2188C184.516 27.4375 184.523 27.6406 184.539 27.8281C184.57 28.0156 184.625 28.2031 184.703 28.3906C184.781 28.4219 184.867 28.4453 184.961 28.4609C185.07 28.4766 185.164 28.4844 185.242 28.4844C185.32 28.4844 185.398 28.4766 185.477 28.4609C185.555 28.4297 185.609 28.375 185.641 28.2969C185.875 28.2656 186.109 28.2578 186.344 28.2734C186.578 28.2734 186.812 28.2734 187.047 28.2734C187.281 28.2734 187.508 28.2656 187.727 28.25C187.961 28.2344 188.188 28.1953 188.406 28.1328C188.656 28.0703 188.898 28.0312 189.133 28.0156C189.383 28 189.625 27.9844 189.859 27.9688C190.094 27.9531 190.336 27.9297 190.586 27.8984C190.836 27.8516 191.094 27.7656 191.359 27.6406C191.562 27.7188 191.766 27.7578 191.969 27.7578C192.188 27.7578 192.398 27.7734 192.602 27.8047C192.711 27.8828 192.797 27.9688 192.859 28.0625C192.938 28.1562 192.977 28.2656 192.977 28.3906C192.977 28.6094 192.898 28.8281 192.742 29.0469C192.586 29.2656 192.461 29.4688 192.367 29.6562H192.109C191.734 29.6562 191.367 29.7109 191.008 29.8203C190.664 29.9141 190.312 30.0312 189.953 30.1719C189.609 30.2969 189.258 30.4141 188.898 30.5234C188.555 30.6172 188.195 30.6641 187.82 30.6641C187.758 30.6641 187.719 30.7031 187.703 30.7812C187.703 30.8438 187.688 30.8906 187.656 30.9219C187.578 30.9062 187.461 30.8984 187.305 30.8984C186.945 30.8984 186.602 30.9375 186.273 31.0156C185.945 31.0938 185.609 31.1328 185.266 31.1328C185.172 31.1328 185.078 31.1328 184.984 31.1328C184.891 31.1172 184.797 31.1016 184.703 31.0859C184.625 31.2109 184.523 31.2969 184.398 31.3438C184.273 31.375 184.156 31.4375 184.047 31.5312C184 31.6719 183.969 31.8438 183.953 32.0469C183.953 32.25 183.945 32.4609 183.93 32.6797C183.93 32.8828 183.914 33.0781 183.883 33.2656C183.852 33.4531 183.789 33.6016 183.695 33.7109C183.711 33.7891 183.773 33.8203 183.883 33.8047C183.992 33.7734 184.047 33.8203 184.047 33.9453C184.047 34.0859 184.031 34.2344 184 34.3906C183.969 34.5469 183.953 34.7031 183.953 34.8594C183.953 35.1562 183.984 35.4844 184.047 35.8438C184.125 36.1875 184.234 36.5078 184.375 36.8047C184.531 37.1016 184.734 37.3516 184.984 37.5547C185.234 37.7422 185.547 37.8359 185.922 37.8359C186.172 37.8359 186.406 37.7891 186.625 37.6953C186.844 37.6016 187.023 37.4453 187.164 37.2266L187.281 37.2031C187.344 37.2031 187.398 37.2109 187.445 37.2266C187.508 37.2422 187.57 37.25 187.633 37.25C187.727 37.25 187.844 37.1953 187.984 37.0859C188.141 36.9609 188.305 36.8203 188.477 36.6641C188.664 36.5078 188.852 36.3594 189.039 36.2188C189.227 36.0625 189.406 35.9531 189.578 35.8906C189.688 35.6719 189.789 35.4531 189.883 35.2344C189.992 35.0156 190.148 34.8438 190.352 34.7188V34.0391C190.508 33.8672 190.672 33.7109 190.844 33.5703C191.031 33.4297 191.172 33.25 191.266 33.0312C191.344 33.0625 191.414 33.0859 191.477 33.1016C191.555 33.1172 191.633 33.125 191.711 33.125C191.789 33.125 191.867 33.1172 191.945 33.1016C192.039 33.0859 192.125 33.0625 192.203 33.0312C192.328 33.2031 192.422 33.3984 192.484 33.6172C192.562 33.8203 192.656 34.0156 192.766 34.2031C192.625 34.4844 192.461 34.8203 192.273 35.2109C192.086 35.6016 191.883 35.9922 191.664 36.3828C191.445 36.7734 191.211 37.1484 190.961 37.5078C190.727 37.8516 190.492 38.1172 190.258 38.3047C190.211 38.3516 190.109 38.4062 189.953 38.4688C189.781 38.5938 189.625 38.7109 189.484 38.8203C189.344 38.9453 189.211 39.0859 189.086 39.2422C188.633 39.3828 188.195 39.5703 187.773 39.8047C187.367 40.0391 186.961 40.2656 186.555 40.4844C186.367 40.4375 186.164 40.4141 185.945 40.4141C185.758 40.4141 185.57 40.4219 185.383 40.4375C185.195 40.4688 184.992 40.4844 184.773 40.4844C184.711 40.4062 184.617 40.3516 184.492 40.3203C184.383 40.3047 184.344 40.2266 184.375 40.0859C183.844 40.0547 183.414 39.9062 183.086 39.6406C182.758 39.3906 182.477 39.0781 182.242 38.7031C182.023 38.3281 181.844 37.9219 181.703 37.4844C181.562 37.0469 181.414 36.625 181.258 36.2188V36.1484C181.258 36.0703 181.289 36.0234 181.352 36.0078C181.414 35.9922 181.445 35.9453 181.445 35.8672C181.445 35.8359 181.438 35.8125 181.422 35.7969C181.375 35.625 181.336 35.4766 181.305 35.3516C181.273 35.2266 181.258 35.0781 181.258 34.9062C181.258 34.6562 181.273 34.4141 181.305 34.1797C181.336 33.9297 181.352 33.6797 181.352 33.4297C181.352 33.1797 181.32 32.9609 181.258 32.7734C181.32 32.6953 181.375 32.5938 181.422 32.4688C181.453 32.3281 181.477 32.1875 181.492 32.0469C181.508 31.9062 181.516 31.7656 181.516 31.625C181.531 31.4844 181.555 31.3594 181.586 31.25C181.523 31.0781 181.469 30.9297 181.422 30.8047C181.375 30.6641 181.352 30.5 181.352 30.3125V30.1484C181.508 29.8828 181.641 29.6094 181.75 29.3281C181.859 29.0469 181.977 28.7578 182.102 28.4609V28.3906C182.102 27.9375 182.086 27.4844 182.055 27.0312C182.023 26.5781 182.008 26.125 182.008 25.6719V25.2266C182.008 25.0703 182.016 24.9219 182.031 24.7812C182.156 24.7188 182.25 24.6328 182.312 24.5234C182.375 24.4141 182.469 24.3281 182.594 24.2656H183.367L183.508 24.0312C183.555 23.9531 183.586 23.8672 183.602 23.7734C183.773 23.7266 183.938 23.6641 184.094 23.5859C184.266 23.4922 184.422 23.3984 184.562 23.3047C184.781 23.1797 184.977 23.0703 185.148 22.9766C185.336 22.8672 185.516 22.7812 185.688 22.7188C185.875 22.6406 186.07 22.5781 186.273 22.5312C186.477 22.4844 186.711 22.4453 186.977 22.4141C187.102 22.4141 187.18 22.3906 187.211 22.3438C187.258 22.2969 187.32 22.2422 187.398 22.1797C187.586 22.2109 187.773 22.2422 187.961 22.2734C188.148 22.2891 188.336 22.2969 188.523 22.2969C188.898 22.2969 189.25 22.2266 189.578 22.0859C190.047 22.0859 190.508 22.0781 190.961 22.0625C191.43 22.0469 191.898 22.0391 192.367 22.0391C192.773 22.0391 193.18 22.0547 193.586 22.0859C193.992 22.1172 194.391 22.1719 194.781 22.25C194.922 22.2031 195.078 22.1797 195.25 22.1797C195.438 22.1797 195.625 22.2031 195.812 22.25C196.016 22.2812 196.211 22.2812 196.398 22.25C196.414 22.4219 196.453 22.5703 196.516 22.6953C196.594 22.8047 196.633 22.9375 196.633 23.0938ZM225.367 14.3984C225.148 14.6172 224.93 14.8359 224.711 15.0547C224.492 15.2578 224.32 15.5156 224.195 15.8281C224.008 15.8594 223.812 15.8984 223.609 15.9453C223.406 15.9922 223.211 16.0156 223.023 16.0156C222.898 16.0156 222.773 16 222.648 15.9688C222.523 15.9219 222.398 15.8984 222.273 15.8984C222.164 15.8984 222.109 15.9531 222.109 16.0625C222.109 16.1719 222.078 16.2578 222.016 16.3203C221.891 16.2734 221.758 16.2422 221.617 16.2266C221.477 16.2109 221.336 16.2031 221.195 16.2031C220.867 16.2031 220.539 16.2578 220.211 16.3672C219.898 16.4609 219.586 16.5781 219.273 16.7188C218.961 16.8438 218.648 16.9766 218.336 17.1172C218.023 17.2578 217.703 17.3672 217.375 17.4453C217.391 17.4609 217.398 17.5 217.398 17.5625C217.398 17.6719 217.367 17.7656 217.305 17.8438C217.242 17.9062 217.211 17.9922 217.211 18.1016V18.1719C217.398 18.5781 217.586 18.9688 217.773 19.3438C217.961 19.7188 218.141 20.1094 218.312 20.5156C218.406 20.7188 218.484 20.9141 218.547 21.1016C218.609 21.2891 218.68 21.4922 218.758 21.7109C218.789 21.8359 218.844 21.9219 218.922 21.9688C219 22 219.078 22.0547 219.156 22.1328C219.125 22.2266 219.109 22.3125 219.109 22.3906C219.109 22.6875 219.18 22.9766 219.32 23.2578C219.461 23.5234 219.531 23.7969 219.531 24.0781C219.531 24.1562 219.516 24.2578 219.484 24.3828C219.672 24.6484 219.805 24.9531 219.883 25.2969C219.961 25.6406 220.031 25.9922 220.094 26.3516C220.156 26.6953 220.219 27.0391 220.281 27.3828C220.359 27.7109 220.492 28.0078 220.68 28.2734C220.57 28.4609 220.5 28.6641 220.469 28.8828C220.438 29.0859 220.422 29.2969 220.422 29.5156C220.422 30.0156 220.469 30.5234 220.562 31.0391C220.672 31.5391 220.727 32.0391 220.727 32.5391C220.727 32.8828 220.688 33.1641 220.609 33.3828C220.641 33.6172 220.719 33.7891 220.844 33.8984C220.781 34.0078 220.758 34.1406 220.773 34.2969C220.789 34.4375 220.758 34.5625 220.68 34.6719C220.758 34.9844 220.797 35.2734 220.797 35.5391C220.797 35.9297 220.742 36.3203 220.633 36.7109C220.539 37.0859 220.492 37.4766 220.492 37.8828C220.492 37.9922 220.5 38.0938 220.516 38.1875C220.531 38.2969 220.562 38.4141 220.609 38.5391C220.578 38.6328 220.516 38.6875 220.422 38.7031C220.344 38.7344 220.289 38.7891 220.258 38.8672V38.9375C220.258 39.1719 220.227 39.375 220.164 39.5469C220.117 39.7344 220.055 39.9062 219.977 40.0625L219.766 40.5547C219.703 40.7266 219.648 40.9141 219.602 41.1172C219.195 41.3359 218.805 41.5469 218.43 41.75C218.07 41.9531 217.719 42.2266 217.375 42.5703C217.312 42.5859 217.219 42.5938 217.094 42.5938C216.984 42.5938 216.875 42.5859 216.766 42.5703C216.656 42.5703 216.539 42.5703 216.414 42.5703C216.242 42.5703 216.062 42.5938 215.875 42.6406C215.625 42.4062 215.32 42.2344 214.961 42.125C214.602 42.0312 214.266 41.8984 213.953 41.7266C213.844 41.5859 213.719 41.4609 213.578 41.3516L213.156 41.0234C213.016 40.9141 212.883 40.8047 212.758 40.6953C212.633 40.5859 212.523 40.4453 212.43 40.2734H212.102C212.102 40.2578 212.102 40.2422 212.102 40.2266C212.117 40.2109 212.125 40.1953 212.125 40.1797C212.125 40.1016 212.086 40.0547 212.008 40.0391C211.93 40.0234 211.906 39.9688 211.938 39.875C211.75 39.7344 211.594 39.5703 211.469 39.3828C211.344 39.1953 211.219 39 211.094 38.7969C210.969 38.6094 210.844 38.4219 210.719 38.2344C210.594 38.0625 210.438 37.9062 210.25 37.7656V37.7188C210.25 37.6406 210.227 37.5938 210.18 37.5781C210.133 37.5469 210.125 37.4688 210.156 37.3438C209.906 37.0156 209.695 36.6719 209.523 36.3125C209.352 35.9531 209.188 35.5859 209.031 35.2109C208.891 34.8203 208.742 34.4375 208.586 34.0625C208.445 33.6875 208.273 33.3281 208.07 32.9844C208.039 32.8281 208.023 32.6719 208.023 32.5156V32.0469C208.023 31.5938 208.062 31.1641 208.141 30.7578C208.219 30.3359 208.367 29.9297 208.586 29.5391C208.711 29.5078 208.852 29.5 209.008 29.5156C209.18 29.5156 209.336 29.5156 209.477 29.5156C209.617 29.5156 209.75 29.5078 209.875 29.4922C210.016 29.4609 210.141 29.3906 210.25 29.2812C210.234 29.3438 210.25 29.3906 210.297 29.4219C210.344 29.4375 210.391 29.4453 210.438 29.4453C210.516 29.4453 210.586 29.4375 210.648 29.4219C210.727 29.3906 210.805 29.375 210.883 29.375C210.914 29.375 210.953 29.3828 211 29.3984C211.062 29.4141 211.094 29.4609 211.094 29.5391C211.188 29.5078 211.273 29.4688 211.352 29.4219C211.43 29.375 211.516 29.3281 211.609 29.2812C211.875 29.5156 212.188 29.6953 212.547 29.8203C212.906 29.9297 213.273 30.0391 213.648 30.1484C214.023 30.2422 214.391 30.3516 214.75 30.4766C215.109 30.5859 215.43 30.75 215.711 30.9688C215.789 31.125 215.828 31.2891 215.828 31.4609C215.828 31.7266 215.719 31.9609 215.5 32.1641C215.281 32.3516 215.047 32.4844 214.797 32.5625C214.438 32.3125 214.031 32.1328 213.578 32.0234C213.141 31.9141 212.727 31.7578 212.336 31.5547C212.023 31.6797 211.68 31.75 211.305 31.7656C210.945 31.7656 210.594 31.7812 210.25 31.8125C210.172 31.875 210.141 31.9844 210.156 32.1406C210.188 32.2969 210.164 32.4141 210.086 32.4922C210.289 33.1016 210.555 33.6953 210.883 34.2734C211.211 34.8359 211.508 35.4141 211.773 36.0078C211.805 36.1016 211.859 36.1719 211.938 36.2188C212.016 36.25 212.094 36.2891 212.172 36.3359V36.4062C212.172 36.5 212.195 36.5703 212.242 36.6172C212.289 36.6484 212.297 36.7266 212.266 36.8516C212.453 36.8828 212.586 36.9844 212.664 37.1562C212.758 37.3281 212.852 37.4766 212.945 37.6016C213.008 37.6797 213.07 37.75 213.133 37.8125C213.211 37.875 213.281 37.9453 213.344 38.0234C213.609 38.3203 213.898 38.6328 214.211 38.9609C214.523 39.2891 214.852 39.5391 215.195 39.7109C215.242 39.7422 215.281 39.7578 215.312 39.7578C215.359 39.7578 215.406 39.7656 215.453 39.7812C215.625 39.875 215.812 39.9609 216.016 40.0391C216.219 40.1328 216.43 40.1797 216.648 40.1797C216.758 40.1797 216.867 40.1562 216.977 40.1094C217.102 40.0625 217.18 39.9844 217.211 39.875C217.289 39.7344 217.344 39.5703 217.375 39.3828C217.422 39.2109 217.461 39.0469 217.492 38.8906C217.617 38.4375 217.734 37.9844 217.844 37.5312C217.969 37.0781 218.07 36.625 218.148 36.1719C218.117 35.9688 218.094 35.7656 218.078 35.5625C218.062 35.3594 218.055 35.1562 218.055 34.9531C218.055 34.5938 218.062 34.2344 218.078 33.875C218.109 33.5156 218.125 33.1562 218.125 32.7969C218.125 32.4688 218.102 32.1484 218.055 31.8359C218.023 31.5078 217.945 31.1875 217.82 30.875C217.852 30.8125 217.891 30.7656 217.938 30.7344C217.984 30.7031 218.008 30.6484 218.008 30.5703C218.008 30.4766 217.977 30.3516 217.914 30.1953C217.867 30.0234 217.805 29.9141 217.727 29.8672C217.836 29.7109 217.891 29.5156 217.891 29.2812C217.891 29.0156 217.852 28.75 217.773 28.4844C217.695 28.2188 217.656 27.9531 217.656 27.6875C217.656 27.5156 217.68 27.3438 217.727 27.1719C217.727 27.0625 217.672 27.0078 217.562 27.0078C217.453 27.0078 217.391 26.9531 217.375 26.8438C217.375 26.8125 217.375 26.7812 217.375 26.75C217.391 26.7188 217.398 26.6875 217.398 26.6562C217.398 26.4531 217.367 26.2656 217.305 26.0938C217.258 25.9062 217.227 25.7109 217.211 25.5078C217.07 25.3516 216.969 25.1562 216.906 24.9219C216.844 24.6875 216.781 24.4531 216.719 24.2188C216.656 23.9688 216.586 23.7344 216.508 23.5156C216.43 23.2969 216.305 23.1172 216.133 22.9766C216.133 22.7734 216.102 22.5625 216.039 22.3438C215.992 22.125 215.859 21.9688 215.641 21.875C215.547 21.5156 215.422 21.1797 215.266 20.8672C215.109 20.5547 214.898 20.2734 214.633 20.0234C214.633 19.6484 214.555 19.3594 214.398 19.1562C214.258 18.9531 214.078 18.7188 213.859 18.4531C213.5 18.4844 213.141 18.5547 212.781 18.6641C212.422 18.7734 212.062 18.8281 211.703 18.8281C211.609 18.8281 211.516 18.8281 211.422 18.8281C211.344 18.8125 211.258 18.7969 211.164 18.7812C211.086 18.8281 211.039 18.9062 211.023 19.0156C211.008 19.1094 211 19.1953 211 19.2734C210.719 19.3047 210.445 19.3594 210.18 19.4375C209.914 19.5 209.641 19.5703 209.359 19.6484C209.094 19.7109 208.828 19.7656 208.562 19.8125C208.297 19.8594 208.023 19.875 207.742 19.8594C207.633 20.0781 207.477 20.2266 207.273 20.3047C207.07 20.3672 206.852 20.4141 206.617 20.4453C206.398 20.4766 206.18 20.5156 205.961 20.5625C205.742 20.6094 205.57 20.7109 205.445 20.8672C205.383 20.8047 205.305 20.7734 205.211 20.7734C205.086 20.7734 204.969 20.8047 204.859 20.8672C204.734 20.9297 204.602 20.9609 204.461 20.9609C204.352 20.9609 204.266 20.9297 204.203 20.8672C204.094 20.9453 203.977 21.0078 203.852 21.0547C203.711 21.0859 203.602 21.1641 203.523 21.2891C203.258 21.2422 203.023 21.1406 202.82 20.9844C202.617 20.8281 202.453 20.6406 202.328 20.4219C202.188 20.2031 202.086 19.9688 202.023 19.7188C201.961 19.4531 201.93 19.1953 201.93 18.9453C202.023 18.7734 202.172 18.6562 202.375 18.5938C202.578 18.5312 202.742 18.4219 202.867 18.2656C202.977 18.3125 203.086 18.3594 203.195 18.4062C203.289 18.4375 203.398 18.4531 203.523 18.4531C203.68 18.4531 203.812 18.4219 203.922 18.3594C204.031 18.2969 204.148 18.2656 204.273 18.2656C204.352 18.2656 204.438 18.2891 204.531 18.3359C204.641 18.2422 204.773 18.1875 204.93 18.1719C205.086 18.1406 205.234 18.1172 205.375 18.1016C205.531 18.0703 205.672 18.0312 205.797 17.9844C205.922 17.9375 206.008 17.8359 206.055 17.6797C206.195 17.7266 206.344 17.75 206.5 17.75C206.688 17.75 206.875 17.7266 207.062 17.6797C207.25 17.6172 207.422 17.5547 207.578 17.4922C207.734 17.4297 207.875 17.375 208 17.3281C208.125 17.2656 208.211 17.2344 208.258 17.2344C208.336 17.2344 208.414 17.2578 208.492 17.3047C208.57 17.3359 208.648 17.3516 208.727 17.3516C208.883 17.3516 209.031 17.3047 209.172 17.2109C209.328 17.1172 209.469 17.0234 209.594 16.9297C209.719 16.9922 209.836 17.0234 209.945 17.0234C210.164 17.0234 210.383 16.9609 210.602 16.8359C210.836 16.7109 211.086 16.6484 211.352 16.6484C211.461 16.6484 211.547 16.6562 211.609 16.6719C211.969 16.5 212.398 16.3438 212.898 16.2031C213.414 16.0625 213.875 15.9922 214.281 15.9922C214.5 15.8047 214.758 15.6719 215.055 15.5938C215.352 15.5156 215.656 15.4531 215.969 15.4062C216.281 15.3594 216.586 15.2969 216.883 15.2188C217.195 15.1406 217.477 15.0078 217.727 14.8203C217.805 14.8516 217.898 14.875 218.008 14.8906C218.117 14.8906 218.195 14.9219 218.242 14.9844C218.32 14.9531 218.375 14.8984 218.406 14.8203C218.438 14.7422 218.461 14.6641 218.477 14.5859C218.492 14.5703 218.523 14.5625 218.57 14.5625C218.648 14.5625 218.68 14.5938 218.664 14.6562C218.648 14.7188 218.68 14.75 218.758 14.75C218.805 14.75 218.883 14.7266 218.992 14.6797C219.117 14.6172 219.266 14.5547 219.438 14.4922C219.609 14.4297 219.797 14.375 220 14.3281C220.203 14.2656 220.398 14.2344 220.586 14.2344H220.68L220.797 14.2109C220.875 14.1797 220.961 14.1562 221.055 14.1406C221.148 14.1094 221.234 14.0781 221.312 14.0469C221.406 14.0156 221.469 14 221.5 14C221.844 13.8906 222.195 13.7969 222.555 13.7188C222.93 13.6406 223.297 13.6016 223.656 13.6016C224 13.6016 224.32 13.6641 224.617 13.7891C224.914 13.8984 225.164 14.1016 225.367 14.3984Z" fill="black"/>
</svg>
