<svg width="53" height="42" viewBox="0 0 53 42" fill="none" xmlns="http://www.w3.org/2000/svg">
<path d="M26.5 41.9225L17.111 11.3641L35.889 11.3641L26.5 41.9225Z" fill="black"/>
<path d="M28.3652 39.6025L37.6385 11.7105L52.7869 11.7106L28.3652 39.6025Z" fill="#747474"/>
<path d="M24.365 39.7451L15.5617 11.7208L0.415229 11.4991L24.365 39.7451Z" fill="#747474"/>
<path d="M26.5 0.900812L35.889 10.2554H17.111L26.5 0.900812Z" fill="black"/>
<path d="M37.0444 8.93884L27.7841 -2.90573e-07H40.6088L37.0444 8.93884Z" fill="#747474"/>
<path d="M15.9556 9.00813L25.2159 0.0692927H12.3912L15.9556 9.00813Z" fill="#747474"/>
<path d="M11.2031 0.20788L14.7675 10.5326H0L5.23029 5.50882L11.2031 0.20788Z" fill="black"/>
<path d="M41.7969 0.069294L38.2325 10.394H53L47.7697 5.37023L41.7969 0.069294Z" fill="black"/>
</svg>
